<svg xmlns="http://www.w3.org/2000/svg" width="1600" height="900" fill="none" viewBox="0 0 1600 900"><defs><linearGradient id="a" x1="0" x2="1600" y1="0" y2="900" gradientUnits="userSpaceOnUse"><stop stop-color="#0b1020"/><stop offset="1" stop-color="#070a12"/></linearGradient><linearGradient id="c" x1="0" x2="420" y1="0" y2="300" gradientUnits="userSpaceOnUse"><stop stop-color="#121a2b" stop-opacity=".85"/><stop offset="1" stop-color="#0d1322" stop-opacity=".55"/></linearGradient><marker id="b" markerHeight="8" markerWidth="8" orient="auto-start-reverse" refX="9" refY="5" viewBox="0 0 10 10"><path stroke="#b9c2d6" stroke-linejoin="round" stroke-width="1.6" d="m0 0 10 5-10 5"/></marker><filter id="d" width="160%" height="160%" x="-30%" y="-30%"><feDropShadow dx="0" dy="18" flood-color="#000" flood-opacity=".55" stdDeviation="18"/></filter></defs><path fill="url(#a)" d="M0 0h1600v900H0z"/><path stroke="#b9c2d6" stroke-linecap="round" stroke-linejoin="round" stroke-opacity=".55" stroke-width="2.2" marker-end="url(#b)" d="M500 450h110"/><path stroke="#b9c2d6" stroke-linecap="round" stroke-linejoin="round" stroke-opacity=".55" stroke-width="2.2" marker-end="url(#b)" d="M990 450h110"/><g fill="url(#c)" stroke="#2a3550" stroke-opacity=".65" filter="url(#d)"><rect width="380" height="280" x="120" y="310" rx="22"/><rect width="380" height="280" x="610" y="310" rx="22"/><rect width="380" height="280" x="1100" y="310" rx="22"/></g><text x="152" y="366" fill="#eaf0ff" letter-spacing=".2" style="font:700 28px ui-sans-serif,system-ui,-apple-system,Segoe UI,Inter,Roboto,Arial">Capture</text><text x="152" y="390" fill="#b9c2d6" opacity=".85" style="font:500 14px ui-sans-serif,system-ui,-apple-system,Segoe UI,Inter,Roboto,Arial">click / scroll / pointer</text><text x="642" y="366" fill="#eaf0ff" letter-spacing=".2" style="font:700 28px ui-sans-serif,system-ui,-apple-system,Segoe UI,Inter,Roboto,Arial">Adapter</text><text x="642" y="390" fill="#b9c2d6" opacity=".85" style="font:500 14px ui-sans-serif,system-ui,-apple-system,Segoe UI,Inter,Roboto,Arial">fetch / memory / custom labels</text><text x="1132" y="366" fill="#eaf0ff" letter-spacing=".2" style="font:700 28px ui-sans-serif,system-ui,-apple-system,Segoe UI,Inter,Roboto,Arial">Render</text><text x="1132" y="390" fill="#b9c2d6" opacity=".85" style="font:500 14px ui-sans-serif,system-ui,-apple-system,Segoe UI,Inter,Roboto,Arial">WebGL / Canvas / Worker</text><g transform="translate(170 430)"><path stroke="#b9c2d6" stroke-linecap="round" stroke-linejoin="round" stroke-width="2.2" d="M22 6v36l10-8 6 18 8-4-6-18h16Z"/><circle cx="74" cy="18" r="10" stroke="#b9c2d6" stroke-linecap="round" stroke-linejoin="round" stroke-opacity=".55" stroke-width="2.2"/><circle cx="74" cy="18" r="18" stroke="#b9c2d6" stroke-linecap="round" stroke-linejoin="round" stroke-opacity=".55" stroke-width="2.2"/><path stroke="#48d5ff" stroke-linecap="round" stroke-linejoin="round" stroke-width="2.2" d="m70 14 8 8"/><text y="86" fill="#d5ddf1" opacity=".95" style="font:600 14px ui-sans-serif,system-ui,-apple-system,Segoe UI,Inter,Roboto,Arial">Click</text></g><g transform="translate(290 430)"><rect width="44" height="56" x="18" y="6" stroke="#b9c2d6" stroke-linecap="round" stroke-linejoin="round" stroke-width="2.2" rx="16"/><path stroke="#48d5ff" stroke-linecap="round" stroke-linejoin="round" stroke-width="2.2" d="M40 18v12"/><path stroke="#b9c2d6" stroke-linecap="round" stroke-linejoin="round" stroke-opacity=".55" stroke-width="2.2" d="M40 70v16m-8-8 8 8 8-8"/><text y="86" fill="#d5ddf1" opacity=".95" style="font:600 14px ui-sans-serif,system-ui,-apple-system,Segoe UI,Inter,Roboto,Arial">Scroll</text></g><g transform="translate(410 430)"><circle cx="40" cy="34" r="22" stroke="#b9c2d6" stroke-linecap="round" stroke-linejoin="round" stroke-width="2.2"/><path stroke="#b9c2d6" stroke-linecap="round" stroke-linejoin="round" stroke-opacity=".55" stroke-width="2.2" d="M40 8v10m0 32v10M14 34h10m32 0h10"/><circle cx="40" cy="34" r="4" stroke="#48d5ff" stroke-linecap="round" stroke-linejoin="round" stroke-width="2.2"/><text y="86" fill="#d5ddf1" opacity=".95" style="font:600 14px ui-sans-serif,system-ui,-apple-system,Segoe UI,Inter,Roboto,Arial">Pointer</text></g><g transform="translate(660 430)"><path stroke="#b9c2d6" stroke-linecap="round" stroke-linejoin="round" stroke-width="2.2" d="M26 46c-10 0-16-6-16-14s6-14 14-14c3-8 10-12 18-12 10 0 18 8 18 18 8 0 14 6 14 14 0 6-4 8-10 8Z"/><path stroke="#48d5ff" stroke-linecap="round" stroke-linejoin="round" stroke-width="2.2" d="M42 22v18m-8-6 8 8 8-8"/><text y="86" fill="#d5ddf1" opacity=".95" style="font:600 14px ui-sans-serif,system-ui,-apple-system,Segoe UI,Inter,Roboto,Arial">Fetch</text></g><g transform="translate(780 430)"><ellipse cx="40" cy="16" stroke="#b9c2d6" stroke-linecap="round" stroke-linejoin="round" stroke-width="2.2" rx="26" ry="10"/><path stroke="#b9c2d6" stroke-linecap="round" stroke-linejoin="round" stroke-width="2.2" d="M14 16v30c0 6 12 12 26 12s26-6 26-12V16"/><path stroke="#b9c2d6" stroke-linecap="round" stroke-linejoin="round" stroke-opacity=".55" stroke-width="2.2" d="M14 31c0 6 12 12 26 12s26-6 26-12"/><text y="86" fill="#d5ddf1" opacity=".95" style="font:600 14px ui-sans-serif,system-ui,-apple-system,Segoe UI,Inter,Roboto,Arial">Memory</text></g><g transform="translate(900 430)"><path stroke="#b9c2d6" stroke-linecap="round" stroke-linejoin="round" stroke-width="2.2" d="M16 22h30l24 24-24 24-30-30Z"/><circle cx="30" cy="34" r="4" stroke="#48d5ff" stroke-linecap="round" stroke-linejoin="round" stroke-width="2.2"/><path stroke="#b9c2d6" stroke-linecap="round" stroke-linejoin="round" stroke-opacity=".55" stroke-width="2.2" d="m38 42 16 16"/><text y="86" fill="#d5ddf1" opacity=".95" style="font:600 14px ui-sans-serif,system-ui,-apple-system,Segoe UI,Inter,Roboto,Arial">Labels</text></g><g transform="translate(1150 430)"><path stroke="#b9c2d6" stroke-linecap="round" stroke-linejoin="round" stroke-width="2.2" d="m18 24 22-12 22 12v26L40 62 18 50Z"/><path stroke="#b9c2d6" stroke-linecap="round" stroke-linejoin="round" stroke-opacity=".55" stroke-width="2.2" d="M40 12v26M18 24l22 14 22-14M18 50l22-12 22 12"/><path stroke="#48d5ff" stroke-linecap="round" stroke-linejoin="round" stroke-width="2.2" d="M62 24v26"/><text y="86" fill="#d5ddf1" opacity=".95" style="font:600 14px ui-sans-serif,system-ui,-apple-system,Segoe UI,Inter,Roboto,Arial">WebGL</text></g><g transform="translate(1270 430)"><rect width="52" height="48" x="14" y="14" stroke="#b9c2d6" stroke-linecap="round" stroke-linejoin="round" stroke-width="2.2" rx="10"/><path stroke="#b9c2d6" stroke-linecap="round" stroke-linejoin="round" stroke-opacity=".55" stroke-width="2.2" d="M24 26h32M24 38h24"/><path stroke="#48d5ff" stroke-linecap="round" stroke-linejoin="round" stroke-width="2.2" d="M24 50h20"/><text y="86" fill="#d5ddf1" opacity=".95" style="font:600 14px ui-sans-serif,system-ui,-apple-system,Segoe UI,Inter,Roboto,Arial">Canvas</text></g><g transform="translate(1390 430)"><circle cx="40" cy="38" r="14" stroke="#b9c2d6" stroke-linecap="round" stroke-linejoin="round" stroke-width="2.2"/><path stroke="#b9c2d6" stroke-linecap="round" stroke-linejoin="round" stroke-opacity=".55" stroke-width="2.2" d="M40 14v8m0 32v8M16 38h8m32 0h8M24 22l6 6m20 20 6 6m0-32-6 6M30 48l-6 6"/><circle cx="40" cy="38" r="4" stroke="#48d5ff" stroke-linecap="round" stroke-linejoin="round" stroke-width="2.2"/><text y="86" fill="#d5ddf1" opacity=".95" style="font:600 14px ui-sans-serif,system-ui,-apple-system,Segoe UI,Inter,Roboto,Arial">Worker</text></g><path stroke="#b9c2d6" stroke-linecap="round" stroke-linejoin="round" stroke-opacity=".06" stroke-width="2.2" d="M120 450h1360"/></svg>